<svg id="Capa_1" enable-background="new 0 0 497 497" height="512" viewBox="0 0 497 497" width="512" xmlns="http://www.w3.org/2000/svg"><g><path d="m322.957 234.9 111.969 38.572 62.074 135.471c0 26.649-21.597 48.247-48.247 48.247h-400.506c-26.65-.001-48.247-21.598-48.247-48.247l55.361-141.179 118.682-32.864z" fill="#50e2ce"/><g fill="#00cdad"><path d="m174.043 234.9-35.032 9.701 54.341 45.851c15.405 12.995 34.99 20.151 55.148 20.151s39.743-7.157 55.151-20.154l52.346-44.167-33.04-11.382z"/><path d="m174.043 234.9-174.043 174.043v-320.886l105.304 51.282z"/><path d="m497 88.057v320.886l-174.043-174.043 69.161-94.134z"/></g><path d="m497 88.057-104.882 52.709-69.161 94.134 21.293 21.293 152.75-128.884z" fill="#00ae8e"/><path d="m0 88.057v39.252l152.75 128.884 21.293-21.293-68.739-95.561z" fill="#00ae8e"/><path d="m497 88.057-212.695 179.463c-20.679 17.443-50.931 17.443-71.61 0l-212.695-179.463c0-26.649 21.597-48.247 48.247-48.247h400.507c26.649.001 48.246 21.598 48.246 48.247z" fill="#50e2ce"/><g><g><path d="m140.555 144.279c-4.142 0-7.5-3.358-7.5-7.5v-20.742c0-4.142 3.358-7.5 7.5-7.5s7.5 3.358 7.5 7.5v20.742c0 4.142-3.358 7.5-7.5 7.5z" fill="#423e4f"/></g><g><path d="m356.445 144.279c-4.143 0-7.5-3.358-7.5-7.5v-20.742c0-4.142 3.357-7.5 7.5-7.5s7.5 3.358 7.5 7.5v20.742c0 4.142-3.357 7.5-7.5 7.5z" fill="#423e4f"/></g><g><path d="m248.5 156.626c-13.075 0-25.508-5.663-34.113-15.538-2.721-3.123-2.396-7.86.727-10.582 3.123-2.721 7.86-2.396 10.582.727 5.755 6.605 14.067 10.392 22.805 10.392 8.737 0 17.049-3.788 22.805-10.393 2.722-3.123 7.457-3.448 10.582-.727 3.122 2.721 3.448 7.459.727 10.582-8.607 9.876-21.041 15.539-34.115 15.539z" fill="#423e4f"/></g></g></g></svg>