<?xml version="1.0" encoding="iso-8859-1"?>
<!-- Generator: Adobe Illustrator 19.0.0, SVG Export Plug-In . SVG Version: 6.00 Build 0)  -->
<svg version="1.1" id="Capa_1" xmlns="http://www.w3.org/2000/svg" xmlns:xlink="http://www.w3.org/1999/xlink" x="0px" y="0px"
	 viewBox="0 0 512 512" style="enable-background:new 0 0 512 512;" xml:space="preserve">
<path style="fill:#FF598B;" d="M304.2,324.977l-96.396-0.007h-0.001c-3.977,0-7.793,1.58-10.606,4.392
	c-2.814,2.814-4.394,6.629-4.394,10.608v108.824c0,34.848,28.35,63.198,63.197,63.198c34.849,0,63.199-28.351,63.199-63.198V339.977
	C319.198,331.692,312.483,324.978,304.2,324.977z"/>
<path style="fill:#E6293F;" d="M304.2,324.977l-48.198-0.004v187.018c34.848-0.001,63.197-28.351,63.197-63.198V339.977
	C319.198,331.692,312.483,324.978,304.2,324.977z"/>
<path style="fill:#FFD97D;" d="M336.33,241.001H175.672c-52.565,0-95.33,42.765-95.33,95.329s42.765,95.329,95.33,95.329
	c33.699,0,63.371-17.578,80.327-44.047c16.957,26.469,46.631,44.047,80.331,44.047c52.566,0,95.331-42.765,95.331-95.329
	S388.896,241.001,336.33,241.001z"/>
<path style="fill:#FFA538;" d="M336.33,241.001h-80.329v146.615c16.958,26.468,46.63,44.044,80.329,44.044
	c52.566,0,95.331-42.765,95.331-95.329S388.896,241.001,336.33,241.001z"/>
<path style="fill:#09426D;" d="M285.056,301.005c-2.679-4.641-7.631-7.5-12.99-7.5h-32.134c-5.359,0-10.311,2.859-12.99,7.5
	c-2.68,4.642-2.68,10.359,0,14.999l16.065,27.826c2.68,4.641,7.631,7.5,12.99,7.5c5.358,0,10.311-2.858,12.99-7.499l16.067-27.826
	C287.736,311.363,287.736,305.645,285.056,301.005z"/>
<path style="fill:#A46343;" d="M174.671,87.917c-7.278-17.018-16.906-31.586-28.617-43.292C104.664,3.23,39.462,0.013,20.465,0.013
	c-3.728,0-5.935,0.116-6.175,0.129C6.658,0.563,0.563,6.657,0.141,14.291C-0.046,17.669-3.87,97.57,44.624,146.06
	c11.93,11.928,26.804,21.686,44.212,29.005c1.878,0.789,3.853,1.172,5.81,1.172c3.947,0,7.826-1.559,10.705-4.488l66.23-67.424
	C175.841,99.988,177.061,93.507,174.671,87.917z"/>
<path style="fill:#84493B;" d="M511.86,14.289c-0.422-7.635-6.518-13.73-14.151-14.15c-0.239-0.013-2.445-0.129-6.167-0.129
	c-18.999,0-84.205,3.218-125.598,44.611c-11.71,11.712-21.337,26.275-28.613,43.287c-2.392,5.591-1.171,12.072,3.089,16.409
	l66.226,67.431c2.879,2.931,6.758,4.489,10.706,4.489c1.957,0,3.932-0.383,5.809-1.172c17.41-7.319,32.288-17.079,44.218-29.009
	C515.867,97.571,512.047,17.667,511.86,14.289z"/>
<path style="fill:#012641;" d="M285.056,301.005c-2.679-4.641-7.631-7.5-12.99-7.5h-16.065v57.825
	c5.357-0.001,10.309-2.859,12.988-7.499l16.067-27.826C287.736,311.363,287.736,305.645,285.056,301.005z"/>
<g>
</g>
<g>
</g>
<g>
</g>
<g>
</g>
<g>
</g>
<g>
</g>
<g>
</g>
<g>
</g>
<g>
</g>
<g>
</g>
<g>
</g>
<g>
</g>
<g>
</g>
<g>
</g>
<g>
</g>
</svg>
