<?xml version="1.0" standalone="no"?>
<!DOCTYPE svg PUBLIC "-//W3C//DTD SVG 20010904//EN"
 "http://www.w3.org/TR/2001/REC-SVG-20010904/DTD/svg10.dtd">
<svg version="1.0" xmlns="http://www.w3.org/2000/svg"
 width="373.000000pt" height="370.000000pt" viewBox="0 0 373.000000 370.000000"
 preserveAspectRatio="xMidYMid meet">
<metadata>
Created by potrace 1.16, written by Peter Selinger 2001-2019
</metadata>
<g transform="translate(0.000000,370.000000) scale(0.100000,-0.100000)"
fill="#000000" stroke="none">
<path d="M2205 2520 c-22 -5 -285 -51 -584 -104 -299 -52 -544 -97 -546 -98
-1 -2 155 -897 174 -996 1 -2 28 0 61 4 l60 7 0 -42 0 -41 610 0 610 0 0 470
0 470 -128 0 -129 0 -28 170 c-31 186 -25 175 -100 160z m10 -197 c9 -54 19
-106 21 -115 5 -17 -20 -18 -430 -18 l-436 0 0 -380 0 -380 -23 0 c-21 0 -24
10 -65 248 -24 136 -56 318 -71 405 -16 86 -28 157 -27 158 4 2 984 177 997
178 13 1 20 -19 34 -96z m275 -603 l0 -370 -510 0 -510 0 0 370 0 370 510 0
510 0 0 -370z"/>
<path d="M1540 1750 l0 -270 100 66 99 67 65 -41 65 -41 152 165 c83 91 157
168 165 171 20 8 36 -6 119 -102 130 -151 115 -159 115 63 l0 192 -440 0 -440
0 0 -270z m255 185 c47 -46 22 -134 -41 -149 -37 -10 -82 11 -99 45 -21 40
-19 63 11 98 34 41 92 44 129 6z"/>
</g>
</svg>
